<?xml version="1.0" encoding="utf-8"?>
<!-- Generator: Adobe Illustrator 22.0.1, SVG Export Plug-In . SVG Version: 6.00 Build 0)  -->
<svg version="1.1" id="Layer_1" xmlns="http://www.w3.org/2000/svg" xmlns:xlink="http://www.w3.org/1999/xlink" x="0px" y="0px"
	 viewBox="0 0 213 215.7" style="enable-background:new 0 0 213 215.7;" xml:space="preserve">
<style type="text/css">
	.st0{fill:#FF3F2F;}
	.st1{fill:#00A94C;}
	.st2{fill:#FFBC00;}
	.st3{fill:#0083F5;}
	.st4{fill:#CEC6C6;}
	.st5{fill:none;stroke:#C8CBCC;stroke-width:10;stroke-miterlimit:10;}
	.st6{fill:#C5C8C9;}
</style>
<g>
	<path class="st0" d="M106.5,43.1c15.6,0,29.9,5.7,41,15.1l30.4-30.4C159,10.5,134,0,106.5,0C64.9,0,28.9,24.1,11.4,59.3l34.8,27.3
		C54.8,61.3,78.6,43.1,106.5,43.1z"/>
	<path class="st1" d="M106.5,172.5c-28,0-51.8-18.2-60.4-43.6L11,155.6c17.4,35.6,53.6,60.1,95.5,60.1c27.2,0,52-10.3,70.8-27.3
		l-35.1-26.9C132,168.5,119.7,172.5,106.5,172.5z"/>
	<path class="st2" d="M42.6,107.8c0-7.5,1.3-14.6,3.6-21.3L11.4,59.3C4.1,73.9,0,90.4,0,107.8c0,17.1,4,33.3,11,47.7l35.1-26.6
		C43.8,122.3,42.6,115.2,42.6,107.8z"/>
	<path class="st3" d="M211.1,87.7h-24.5h-19.4h-60.6v41.3h60.3c-4.6,13.4-13.3,24.8-24.7,32.6l35.1,26.9
		c21.9-19.8,35.7-48.5,35.7-80.6C213,100.9,212.4,94.2,211.1,87.7z"/>
</g>
<g>
	<ellipse class="st4" cx="105.3" cy="492.7" rx="123.3" ry="121.5"/>
	<path class="st0" d="M105.3,426.5c15.6,0,29.9,5.7,41,15.1l30.4-30.4c-18.9-17.3-43.9-27.8-71.4-27.8c-41.6,0-77.6,24.1-95.1,59.3
		L45,469.9C53.7,444.6,77.4,426.5,105.3,426.5z"/>
	<path class="st1" d="M105.3,555.9c-28,0-51.8-18.2-60.4-43.6L9.8,538.9c17.4,35.6,53.6,60.1,95.5,60.1c27.2,0,52-10.3,70.8-27.3
		L141,544.8C130.8,551.8,118.6,555.9,105.3,555.9z"/>
	<path class="st2" d="M41.4,491.2c0-7.5,1.3-14.6,3.6-21.3l-34.8-27.3c-7.3,14.6-11.4,31.1-11.4,48.6c0,17.1,4,33.3,11,47.7
		l35.1-26.6C42.7,505.6,41.4,498.6,41.4,491.2z"/>
	<path class="st3" d="M210,471h-24.5h-19.4h-60.6v41.3h60.3c-4.6,13.4-13.3,24.8-24.7,32.6l35.1,26.9c21.9-19.8,35.7-48.5,35.7-80.6
		C211.8,484.3,211.2,477.5,210,471z"/>
</g>
<g>
	<ellipse class="st5" cx="486.8" cy="490.8" rx="123.3" ry="121.5"/>
	<path class="st0" d="M490,437.8c13.1,0,25.1,4.8,34.4,12.8l25.5-25.9C534,410,513,401,490,401c-34.8,0-65,20.6-79.7,50.6l29.1,23.3
		C446.7,453.3,466.5,437.8,490,437.8z"/>
	<path class="st1" d="M490,548.2c-23.5,0-43.4-15.6-50.6-37.2l-29.4,22.7c14.6,30.4,45,51.3,80.1,51.3c22.8,0,43.6-8.8,59.3-23.3
		l-29.4-22.9C511.3,544.7,501,548.2,490,548.2z"/>
	<path class="st2" d="M436.4,493c0-6.4,1.1-12.5,3-18.2l-29.1-23.3c-6.1,12.5-9.5,26.5-9.5,41.4c0,14.6,3.3,28.5,9.2,40.7l29.4-22.7
		C437.4,505.4,436.4,499.3,436.4,493z"/>
	<path class="st3" d="M577.7,475.8h-20.5h-16.3h-50.8V511h50.5c-3.8,11.4-11.2,21.2-20.7,27.8l29.4,22.9
		c18.4-16.9,29.9-41.4,29.9-68.7C579.3,487.1,578.7,481.4,577.7,475.8z"/>
</g>
<g>
	<path class="st6" d="M588.3,226.5H387.7c-10.7,0-19.3-8.7-19.3-19.3V8.5c0-10.7,8.7-19.3,19.3-19.3h200.7
		c10.7,0,19.3,8.7,19.3,19.3v198.7C607.7,217.8,599,226.5,588.3,226.5z"/>
	<path class="st0" d="M489.5,43.1c15.6,0,29.9,5.7,41,15.1l30.4-30.4C542,10.5,517,0,489.5,0c-41.6,0-77.6,24.1-95.1,59.3l34.8,27.3
		C437.8,61.3,461.6,43.1,489.5,43.1z"/>
	<path class="st1" d="M489.5,172.5c-28,0-51.8-18.2-60.4-43.6L394,155.6c17.4,35.6,53.6,60.1,95.5,60.1c27.2,0,52-10.3,70.8-27.3
		l-35.1-26.9C515,168.5,502.7,172.5,489.5,172.5z"/>
	<path class="st2" d="M425.6,107.8c0-7.5,1.3-14.6,3.6-21.3l-34.8-27.3c-7.3,14.6-11.4,31.1-11.4,48.6c0,17.1,4,33.3,11,47.7
		l35.1-26.6C426.8,122.3,425.6,115.2,425.6,107.8z"/>
	<path class="st3" d="M594.1,87.7h-24.5h-19.4h-60.6v41.3h60.3c-4.6,13.4-13.3,24.8-24.7,32.6l35.1,26.9
		c21.9-19.8,35.7-48.5,35.7-80.6C596,100.9,595.4,94.2,594.1,87.7z"/>
</g>
</svg>
